<svg width="300" height="300" viewBox="0 0 300 300" fill="none" xmlns="http://www.w3.org/2000/svg">
<g clip-path="url(#clip0_34_2322)">
<path d="M171.249 195.646C172.522 195.788 173.583 196.707 173.865 197.98C174.36 200.172 174.926 202.293 175.492 204.414C178.744 216.576 183.199 228.385 188.715 239.699C189.422 241.254 188.008 242.952 186.381 242.457C165.804 236.729 144.167 236.163 123.095 240.83C100.468 245.921 79.7495 256.882 62.8497 272.791C61.7183 273.923 59.8091 273.852 58.6777 272.721L32.232 246.275C31.1006 245.144 31.1006 243.305 32.1612 242.103C48.0711 225.203 59.0313 204.485 64.1225 181.857C68.7894 160.927 68.2237 139.148 62.4961 118.571C62.0719 116.874 63.7689 115.46 65.2538 116.238C76.5675 121.753 88.3762 126.208 100.538 129.461C102.66 130.027 104.852 130.522 106.973 131.087C108.246 131.37 109.165 132.431 109.307 133.704C111.852 155.907 110.155 177.968 104.215 199.464L103.791 201.162L105.488 200.737C126.984 194.798 149.117 193.03 171.249 195.646Z" fill="#1A2A3A"/>
<path fill-rule="evenodd" clip-rule="evenodd" d="M270.81 242.173C235.975 205.124 227.102 152.403 244.194 107.37C211.201 102.976 201.041 92.7566 197.818 60.6695C152.734 77.8814 99.8934 69.0391 62.7796 34.1425C61.5775 33.0819 59.739 33.0819 58.6077 34.2133L32.2326 60.5883C31.0305 61.7904 31.0305 63.6289 32.2326 64.831C44.5676 76.6062 58.44 86.324 73.3193 93.8437C111.068 112.921 155.296 117.851 197.342 106.338L199.039 105.914L198.615 107.611C182.634 166.159 198.473 229.092 240.122 272.72C241.253 273.852 243.163 273.922 244.365 272.72L270.74 246.345C271.871 245.214 271.942 243.305 270.81 242.173Z" fill="#1A2A3A"/>
<circle cx="240.318" cy="64.3701" r="24" fill="#D4AF37"/>
</g>
<defs>
<clipPath id="clip0_34_2322">
<rect width="300" height="300" fill="white"/>
</clipPath>
</defs>
</svg>
